<?xml version="1.0" encoding="utf-8"?>
<!-- Generator: Adobe Illustrator 24.1.2, SVG Export Plug-In . SVG Version: 6.00 Build 0)  -->
<svg version="1.1" id="Layer_1" xmlns="http://www.w3.org/2000/svg" xmlns:xlink="http://www.w3.org/1999/xlink" x="0px" y="0px"
	 viewBox="0 0 470 132" style="enable-background:new 0 0 470 132;" xml:space="preserve">
<style type="text/css">
	.st0{clip-path:url(#SVGID_2_);}
	.st1{fill:#E2E6E9;}
	.st2{fill:#D4D9DD;}
	.st3{fill:#FFFFFF;}
	.st4{fill:#F58B1F;}
	.st5{fill:#179C9C;}
	.st6{opacity:0.3;fill:#2C1126;enable-background:new    ;}
	.st7{opacity:0.3;fill:#179C9C;enable-background:new    ;}
	.st8{fill:#172533;}
	.st9{fill:none;stroke:#FFFFFF;stroke-miterlimit:10;}
	.st10{fill:#2C1126;}
	.st11{fill:none;stroke:#E22529;stroke-miterlimit:10;}
	.st12{fill:none;stroke:#172533;stroke-width:1.5;stroke-linecap:round;stroke-linejoin:round;stroke-miterlimit:10;}
</style>
<g>
	<defs>
		<rect id="SVGID_1_" width="470" height="132"/>
	</defs>
	<clipPath id="SVGID_2_">
		<use xlink:href="#SVGID_1_"  style="overflow:visible;"/>
	</clipPath>
	<g class="st0">
		<g>
			<path class="st1" d="M112.6,119.7c13.7-0.8,24.7-2.9,24.6-4.5c-0.1-1.7-11.3-2.3-24.9-1.5c-13.7,0.8-24.7,2.9-24.6,4.5
				C87.8,119.9,98.9,120.5,112.6,119.7z"/>
		</g>
		<g>
			<path class="st1" d="M316.2,121.3c10.4,0,18.9-1.2,18.9-2.6c0-1.4-8.5-2.6-18.9-2.6c-10.4,0-18.9,1.2-18.9,2.6
				C297.3,120.1,305.8,121.3,316.2,121.3z"/>
		</g>
		<g>
			<path class="st1" d="M247.4,116.3c8.2,0,14.9-0.9,14.9-2.1c0-1.2-6.7-2.1-14.9-2.1c-8.2,0-14.9,0.9-14.9,2.1
				C232.5,115.4,239.2,116.3,247.4,116.3z"/>
		</g>
		<g>
			<path class="st1" d="M179.9,121.1c8.9,0,16.1-1.2,16.1-2.7c0-1.5-7.2-2.7-16.1-2.7c-8.9,0-16.1,1.2-16.1,2.7
				C163.8,119.9,171,121.1,179.9,121.1z"/>
		</g>
		<g>
			<path class="st1" d="M441.5,121c8,0,14.4-1.2,14.4-2.6c0-1.4-6.4-2.6-14.4-2.6s-14.4,1.2-14.4,2.6
				C427.1,119.8,433.5,121,441.5,121z"/>
		</g>
		<g>
			<path class="st2" d="M32.3,129.8c13.4,0,24.3-1.3,24.3-2.8c0-1.5-10.9-2.8-24.3-2.8S8,125.5,8,127C8,128.5,18.9,129.8,32.3,129.8
				z"/>
		</g>
		<g>
			<path class="st1" d="M382,117.8c11.4,0,20.7-1.2,20.7-2.6c0-1.4-9.3-2.6-20.7-2.6s-20.7,1.2-20.7,2.6
				C361.3,116.6,370.6,117.8,382,117.8z"/>
		</g>
		<path class="st3" d="M123.2,74.9c0,0-21.1,4.8-22.6,0.4c-5.6-16.2,1.4-35,1.4-35l9.2,2.4l4.7-2.7
			C128.1,65.7,123.2,74.9,123.2,74.9z"/>
		<path class="st3" d="M47.8,92.8c1,3.5,1.1,7.1,0.9,10.6c-0.1,1.7-0.4,3.2-0.7,4.9c-0.4,3.5-0.6,6.9,0.4,10.3
			c0.4,1.4,1.2,2.6,2.4,3.6c0.7,0.6,1.3,1.2,1.9,1.9c0.2,0.2,0.2,0.4,0.3,0.7c0.1,0.4-0.1,0.7-0.6,0.7c-1.3,0-2.6,0-4-0.2
			c-0.2,0-0.7-0.2-0.8-0.6c-0.8-1.4-1.7-2.7-2.4-4.2c-0.9-1.9-1.7-3.9-2.5-5.8c-0.1-0.2-0.2-0.3-0.2-0.5c-0.7,0.1-1.2,0.2-2,0.3
			c0.5,2.5-0.5,4.6-1.6,6.8c0.8,0.1,1.6,0.2,2.3,0.4c0.8,0.2,1.7,0.5,2.4,0.9c1.1,0.6,1.4,1.6,0.9,2.6c-0.1,0.2-0.3,0.4-0.6,0.4
			c-4.6,0-9.2,0-13.9,0c-1.7,0-3-0.7-4.1-1.8c-0.4-0.4-0.8-0.7-1.2-1.2c-1.2,1.9-3.1,2.6-5.1,3c-2.3,0.5-4.6,0.7-7,0.3
			c-3.2-0.5-5.2-2.7-5.4-6c-0.1-1.2,0.1-2.6,0.2-3.8c4.4,3.3,9.1,4.6,14.4,2.9c-0.2-1.1-0.4-2.1-0.6-3.1c-0.4-3.9,0.8-7.3,3.3-10.2
			c2.9-3.4,6.5-5.7,10.6-7.5c0.2-0.1,0.6-0.2,0.5-0.6c-0.2-2.3,0.4-4.5,1.3-6.4c1-2.1,2.1-4.1,3.1-6.2c0.2-0.2,0.2-0.6,0.2-0.9
			c0.1-1.6,0.8-2.9,1.9-4c0.5-0.6,1.1-1.1,1.7-1.7c0.6,1.2,0.6,2.5,0.8,3.7c1.1-0.7,2.1-1.6,3.2-2.3c0.5,0.4,0.5,1,0.5,1.5
			c0,0.6-0.3,1.2-0.2,1.6c0.2,0.4,0.8,0.6,1.2,1c0.4,0.4,0.7,1,1.2,1.5c0.2,0.2,0.4,0.5,0.7,0.7c1.7,0.7,3.3,1.5,5,2.2
			c0.7,0.3,0.7,0.7,0.5,1.2c-0.1,0.2-0.2,0.3-0.2,0.4c-0.7,0.5-1.1,1.2-1.6,1.9c-0.5,0.7-1.3,1.1-2.1,1.2c-1.5,0.3-3,0.2-4.5,0
			c-0.1,0-0.2-0.1-0.2-0.1C48.1,93.1,48,93,47.8,92.8z"/>
		<path class="st4" d="M97.6,96.1c1.4,0.5,4.5-0.2,4.5-0.2l-0.9-19c0,0-4-14.2-3.8-19.1c0.1-3.4,3.5-13.6,3.2-13.3
			c-3.1,3.8-8,8.8-12.3,21.3c-1.7,5-1.5,10.6-1.7,15.6C86.2,89.2,86,96,86,96s2.5-2.6,3.4-2.4c0.9,0.2,1.8,2.3,2.6,2.5
			c0.8,0.3,2.5-2,3.5-2.2C96.4,93.7,96.2,95.6,97.6,96.1z"/>
		<path class="st4" d="M110.5,96l3-7l0.5-6l9,12l-2,1l-3.5-1l-2,3l-2-2H110.5z"/>
		<path class="st3" d="M110.4,96.6l-2.9,4.7c0,0-3.7,15.8-5.9,15.3c-1.9-0.3,0.3-19.7,0.3-19.7l-0.7-20.3h13c0,0,9.5-2.8,9-0.2
			c-0.1,0.2,7.5,6.1,6.3,18.2c-0.3,2.9-1.7,14.7-3.5,17c-3.2,4.1-1.9-16.3-2.5-16.3c-0.7,0-9.3-12.8-9.3-12.8l-1.2,8L110.4,96.6z"/>
		<path class="st3" d="M229.6,105.1l-0.9-14.9l7.8-27.4l11.8,2L229.6,105.1z"/>
		<path class="st3" d="M266.2,102.5l-0.9-12l-7.8-27.4l-13,2.7l14.2,27.6L266.2,102.5z"/>
		<path class="st3" d="M191.3,79c0,0-19.5,3.8-22.6,0.4c-5.8-6.3,1.6-33.8,1.6-33.8l13.7-1.5C196.2,69.8,191.3,79,191.3,79z"/>
		<path class="st3" d="M323.1,101l-3.9,7.2l2.4,7.6l-4.4-3l-3.8,4l0.8-6.3l-6.9-10.9l-3-20.5l21.1,1.5L323.1,101z"/>
		<path class="st3" d="M375.4,113.2c-1.2,0.2-4.8-14.1-4.8-14.1l0.1-26.9l12.5,1C383.2,73.3,376.2,113,375.4,113.2z"/>
		<path class="st3" d="M390.9,113.2c3.4-0.5,3.9-20.1,3.9-20.1l-1.4-20.8l-11.8,1.5l5.9,26C387.5,99.7,389.8,113.4,390.9,113.2z"/>
		<path class="st5" d="M394.5,89.5V97l-3.5,1l-4-1.5l-1.5-6.5l5-1L394.5,89.5z"/>
		<path class="st5" d="M375,89l4.5,1l-1.5,8l-3,0.5l-3.5-0.5l-1-5v-3L375,89z"/>
		<path class="st3" d="M399.3,74.7c-5.2,2.9-21.6-3.5-30.1-2.8c-14.7,1.2-3.1-24.6-0.3-27.1c2.6-2.5,21.5-3.7,26,1.3
			C398.7,50.2,406.1,70.9,399.3,74.7z"/>
		<path class="st3" d="M440.9,102.9c0,0,2.6,16.7-0.2,14.4c-4.6-4-9.5-34.9-9.5-34.9s8.5,2.8,11.5,2.7c2.9-0.2,10.9-3.6,10.9-3.6
			l-2.1,16.4c0,0,10.6-5.7-2.6,9.2C447.4,108.8,440.9,102.9,440.9,102.9z"/>
		<path class="st3" d="M304.7,79.2c0,0,18.3,3.6,21.3,0.4c5.4-5.9-1.5-31.8-1.5-31.8l-12.9-1.4C300.1,70.4,304.7,79.2,304.7,79.2z"
			/>
		<path class="st3" d="M235.5,62.3c0,0,18.9,3.5,21.8,0.3c5.4-5.9-2.1-31.8-2.1-31.8l-12.9-1.4C230.9,53.5,235.5,62.3,235.5,62.3z"
			/>
		<path class="st6" d="M305.4,32.9c0,8,6.4,15.5,14.4,15.5s15.4-5.1,15.4-13.1s-3.8-10.1-12-16.8C316.7,13.5,305.4,24.9,305.4,32.9z
			"/>
		<path class="st7" d="M236.4,18.2c0,8,5.6,13.5,13.6,13.5s14.6-5.6,14.6-13.6s-3.7-16.3-11.7-16.3C244.9,1.8,236.4,10.2,236.4,18.2
			z"/>
		<path class="st7" d="M158.2,42c7.3,4.3,26,5.4,30.4-2c4.4-7.4-0.2-18.6-7.5-22.9c-7.3-4.3-16.7-2.6-21,4.6
			C155.6,29.1,150.8,37.7,158.2,42z"/>
		<path class="st6" d="M126.8,24.8c0.9,8.9-4.1,20.4-12.9,21.2c-8.7,0.8-22.3-8.5-22.9-17.4c-0.6-9.2,7.8-18,16.4-18.8
			C116.2,9,125.9,16,126.8,24.8z"/>
		<path class="st5" d="M181.1,115.4l-3.6,1.2c0,0-11.1-38-8-36.4c0.7,0.3,5.4,1.9,10.5,1.8c5.5-0.1,12-3,12-3l-4.5,19.4L181.1,115.4
			z"/>
		<path class="st6" d="M432,37.1c0,7.8,4.5,16.7,12.2,16.7c7.8,0,17.5-7.5,17.5-15.3s-3.3-15.2-11.1-15.2
			C442.9,23.3,432,29.4,432,37.1z"/>
		<path class="st7" d="M59.1,79.1c3.1,7.2,0.2,16.3-6.8,19.4c-7.2,3.1-17.3-0.9-20.4-8c-3.1-7.2,1.1-8.3,5.9-17.5
			C41.4,66.1,56,71.9,59.1,79.1z"/>
		<path class="st7" d="M369.6,24.6c-2.5,7.2,0.9,15.9,8.1,18.5c7.2,2.6,16.8-2.1,19.3-9.2s-1.7-8.1-7-16.7
			C385.9,10.6,372,17.4,369.6,24.6z"/>
		<path class="st3" d="M235.5,62.3c0,0,18.9,3.5,21.8,0.3c5.4-5.9-2.1-31.8-2.1-31.8l-12.9-1.4C230.9,53.5,235.5,62.3,235.5,62.3z"
			/>
		<path class="st8" d="M320.9,42.6c-0.2,1.2-1.7,1.8-3.2,1.5c-1.5-0.3-2.6-1.6-2.3-2.7L320.9,42.6z"/>
		<path class="st8" d="M251.2,25.7c0.3-1.2-0.2-2.3-1.1-2.6c-0.9-0.2-1.9,0.5-2.2,1.7c-0.3,1.2,0.2,2.3,1.1,2.6
			C249.9,27.6,250.9,26.9,251.2,25.7z"/>
		<path class="st4" d="M431.8,81.4c0,0,14.4,7.8,20.6,0.4c5-5.9-1.5-30.9-1.5-30.9l-12.5-1.3C427.3,73,431.8,81.4,431.8,81.4z"/>
		<path class="st4" d="M399.3,63.5c0.1-0.6,0.7-1.4,0.6-2c-0.2-4.8-5.6-10-11.1-9.2c-7.1,1-5.6,2.3-7.8,7.3
			c-2.5,5.7,2.3,11.3,8.4,12.4S398.3,69,399.3,63.5z"/>
		<path class="st9" d="M446.2,67.4c-0.3,0.9-1.2,1.2-2.1,0.8c-0.9-0.3-1.6-1.2-0.8-1.9c0.7-0.7,1.2-1.5,1.9-1.3
			C446.1,65.3,446.5,66.5,446.2,67.4z"/>
		<path class="st9" d="M437.4,66.7c0.9,0.2,1.3,0.9,1.2,1.9s-0.7,1.2-1.7,1.5c-0.8,0.2-1.8-1.3-1.7-2
			C435.3,67.1,436.5,66.6,437.4,66.7z"/>
		<path class="st9" d="M452.4,78.4c-0.2,0.9-1,1.3-1.9,1.2c-0.9-0.2-1.2-0.7-1.5-1.7c-0.2-0.8,1.3-1.8,2-1.7
			C451.9,76.3,452.5,77.5,452.4,78.4z"/>
		<path class="st9" d="M444.6,81.8c-0.2,0.9-1,1.3-1.9,1.2c-0.9-0.2-1.2-0.7-1.5-1.7c-0.2-0.8,1.3-1.8,2-1.7
			C444.1,79.7,444.8,80.8,444.6,81.8z"/>
		<path class="st9" d="M435.7,76.9c-0.2,1.2-1.2,1.7-2.3,1.5c-1.2-0.2-1.6-0.9-1.9-2.1c-0.2-1.1,1.7-2.2,2.5-2.1
			C435.1,74.3,435.9,75.7,435.7,76.9z"/>
		<path class="st9" d="M443.2,59.1c-0.2,1.2-1.2,1.7-2.3,1.5c-1.2-0.2-1.6-0.9-1.9-2.1c-0.2-1.1,1.7-2.2,2.5-2.1
			C442.6,56.6,443.3,58,443.2,59.1z"/>
		<path class="st9" d="M445,74.9c-0.2,1.3-1.3,1.9-2.7,1.7c-1.3-0.2-1.8-1-2.1-2.4c-0.3-1.2,1.9-2.6,2.8-2.4
			C444.2,72,445.1,73.6,445,74.9z"/>
		<path class="st9" d="M451.4,60.5c0.4,0.8,0.5,1.2,0,1.9c-0.5,0.6-1.5,0.8-1.8,0.1c-0.2-0.7-0.8-1.5-0.4-1.9
			C449.8,59.9,451.1,59.7,451.4,60.5z"/>
		<path class="st9" d="M449.9,69.8c0.6-0.7,1-0.9,1.7-0.7c0.7,0.2,2,2.1,1.3,2.6c-0.6,0.5-1.7,0.2-2.2,0.1
			C450,71.6,449.4,70.4,449.9,69.8z"/>
		<path class="st10" d="M309.2,53.4c0,0,9.2,0.6,12.5,1.5l4,0.2l0.7,1.7c0,0-1.5-0.3-2.4-0.3s-4-0.3-5-0.5s-2.6-0.7-4.1-0.7
			c-1.5-0.1-5.9-0.4-6.7-0.5c-0.8-0.1,0.2-1.3,0.2-1.3L309.2,53.4z"/>
		<path class="st10" d="M310.5,57.2c0,0,6.8,0.3,10.1,1.3c0,0,4.9,0.4,5.6,0.7c0.3,0.1-0.7,1.1-0.7,1.1S324,60,323.1,60
			s-4-0.3-4.9-0.4c-0.8-0.1-2.6-0.7-4.2-0.7s-6-0.2-6.8-0.2c-0.8-0.1,0.4-1.3,0.4-1.3h2.9V57.2z"/>
		<path class="st10" d="M304.5,72.3c0,0,5.7,0.6,7.7,0.7c2,0.2,7.7,0.9,7.7,0.9l8.6,1.6l2.5,0.7l-0.6,0.8l0.2,0.3l-0.6,1.1
			c0,0-3.7-1-5.7-1.3c-2-0.3-6.1-1.2-7.4-1.2c-1.3,0-8.6-0.9-9.5-1s-2.9-0.1-2.9-0.1V72.3z"/>
		<path class="st10" d="M327.6,66.6c0,0-4.6-1.2-6.6-1.3c-1.9-0.1-1.9-0.5-3.3-0.6c-1.4-0.1-3.5-0.4-3.7-0.4c-0.2,0-3.3-0.4-3.3-0.4
			s-3.1-0.2-3.8-0.2c-0.7,0-1.6,0-1.6,0l0.2-2.1c0,0,3,0,4.2,0.2c1.2,0.2,2.6,0.3,2.9,0.3c0.2,0,3.3,0.4,3.4,0.4s5.8,0.7,5.8,0.7
			l3.3,0.7l3.2,0.9l-0.3,0.4l-0.2,0.1l0.2,0.2L327.6,66.6z"/>
		<path class="st10" d="M305.1,67.4l5.9,0.1c0,0,4.2,0.3,5,0.2c0.7-0.1,4.5,0.3,4.9,0.3s6.4,1.6,6.4,1.7c0,0,0.2,0.3,0.4,0.7
			c0.1,0.1,0.7,1.4,0.5,1.5c-0.5,0.2-2.1-0.7-5.7-1.4c-3.5-0.7-8.8-0.9-8.8-0.9l-8.7,0.1L305.1,67.4z"/>
		<path class="st11" d="M250.3,46.8c-0.3,1-1.2,1.2-2.2,0.9s-1.7-1.3-0.9-2.1c0.7-0.7,1.3-1.7,2.1-1.4
			C250.2,44.5,250.6,45.9,250.3,46.8z"/>
		<path class="st11" d="M240.8,46c1,0.2,1.4,1,1.2,2s-0.7,1.3-1.8,1.7c-0.9,0.2-1.9-1.4-1.8-2.1C238.7,46.6,239.8,45.9,240.8,46z"/>
		<path class="st11" d="M252.6,33c1,0.2,1.4,1,1.2,2s-0.7,1.3-1.8,1.7c-0.9,0.2-1.9-1.4-1.8-2.1C250.4,33.5,251.6,32.8,252.6,33z"/>
		<path class="st11" d="M256.8,58.6c-0.2,1-1,1.4-2,1.2s-1.3-0.7-1.6-1.8c-0.2-0.9,1.4-1.9,2.1-1.8C256.4,56.3,257,57.6,256.8,58.6z
			"/>
		<path class="st11" d="M248.6,62.2c-0.2,1-1,1.4-2,1.2s-1.3-0.7-1.6-1.8c-0.2-0.9,1.4-1.9,2.1-1.8C248.1,60,248.8,61.2,248.6,62.2z
			"/>
		<path class="st11" d="M240.5,56.8c-0.2,1.2-1.2,1.7-2.5,1.6c-1.3-0.1-1.7-0.9-2-2.2c-0.2-1.2,1.7-2.4,2.6-2.2
			C239.9,54,240.7,55.6,240.5,56.8z"/>
		<path class="st11" d="M247,39.7c-0.2,1.2-1.2,1.7-2.5,1.6c-1.3-0.1-1.7-0.9-2-2.2c-0.2-1.2,1.7-2.4,2.6-2.2
			C246.4,36.9,247.2,38.4,247,39.7z"/>
		<path class="st11" d="M248.9,54.9c-0.2,1.4-1.5,2-2.9,1.8s-1.9-1.1-2.3-2.6c-0.3-1.3,2-2.7,3.1-2.6
			C248.2,51.7,249.2,53.5,248.9,54.9z"/>
		<path class="st11" d="M255.9,39.4c0.4,0.8,0.6,1.3,0,2c-0.6,0.7-1.6,0.9-1.9,0.1c-0.3-0.8-0.9-1.6-0.5-2.1
			C254,38.8,255.4,38.6,255.9,39.4z"/>
		<path class="st11" d="M254.3,49.4c0.7-0.7,1.1-1,1.9-0.7c0.8,0.2,2.1,2.2,1.4,2.9c-0.7,0.6-1.8,0.2-2.4,0.1
			C254.4,51.3,253.7,50,254.3,49.4z"/>
		<path class="st12" d="M304.2,79.1c3.5,0.2,6.8,1.2,10.3,1.5c3.5,0.2,9.7,0.4,12.8-1.2"/>
		<path class="st12" d="M312.5,41.2c0.2-2.8,0.6-5.6,1.9-8.1c1.3-2.5,3.5-4.5,6.3-5.1c1.6-0.3,3.4-0.2,4.4,1.1
			c0.7,0.7,0.8,1.8,0.9,2.7c0.5,4.5-0.2,9-2.1,13c-0.2,0.6-0.6,1.2-1.1,1.6c-0.7,0.6-1.5,0.7-2.3,0.9c-2.2,0.4-4.5,0.3-6.8-0.1"/>
		<path class="st12" d="M323.8,46.5c2.5,10.1,6,22.9,3.5,32.9"/>
		<path class="st12" d="M311.6,46.1c-5.8,9.9-8.4,21.6-7.4,33.1"/>
		<path class="st12" d="M234.9,62.4c3.5,0.2,7,1.1,10.6,1.4c3.5,0.3,9.7,0.4,12.8-1.2"/>
		<path class="st12" d="M243.8,25c-0.2-2.8,0-5.6,1-8.2s3-4.9,5.6-5.8c1.5-0.5,3.3-0.5,4.5,0.6c0.7,0.7,1,1.7,1.2,2.6
			c1,4.4,0.7,9-0.7,13.1c-0.2,0.6-0.4,1.2-0.8,1.7c-0.6,0.7-1.4,0.9-2.2,1.2c-2.2,0.7-4.5,0.8-6.8,0.7"/>
		<path class="st12" d="M254.7,29.6c2.5,10.1,6,22.9,3.5,32.9"/>
		<path class="st12" d="M242.6,29.2c-5.8,9.9-8.4,21.6-7.4,33.1"/>
		<path class="st12" d="M238.1,38c-3.3-5-10-19.3-10.4-25.2"/>
		<path class="st12" d="M224.3,9.2c0.2,0.8,0.8,1.5,1.6,1.9c0.7,0.3,1.6,0.4,2.1,1"/>
		<path class="st12" d="M257.5,36.8c3.3-5,11-16.5,11.4-22.4"/>
		<path class="st12" d="M272.4,10.7c-0.2,0.8-0.8,1.5-1.6,1.9c-0.7,0.3-1.6,0.4-2.1,1"/>
		<path class="st12" d="M115.3,39.8c6.1,10.6,8.9,23,7.9,35.1"/>
		<path class="st12" d="M191.9,79.2c-3.8,0.2-7.4,1.2-11.2,1.5c-3.8,0.3-10.3,0.5-13.6-1.2"/>
		<path class="st12" d="M182.3,39.4c0.2-3,0-5.9-1.1-8.7c-1.1-2.8-3.2-5.2-6-6.2c-1.6-0.6-3.5-0.6-4.8,0.7c-0.7,0.7-1.1,1.8-1.3,2.8
			c-1.1,4.6-0.8,9.5,0.7,14c0.2,0.7,0.5,1.2,0.9,1.7c0.6,0.7,1.5,1,2.3,1.2c2.3,0.7,4.8,0.9,7.2,0.7"/>
		<path class="st12" d="M178.5,40c-1.8,0.5-4.5-0.7-5.9-1.7"/>
		<path class="st12" d="M170.8,44.3c-2.6,10.7-6.4,24.3-3.7,35"/>
		<path class="st12" d="M183.7,43.9c6.1,10.6,8.9,23,7.9,35.1"/>
		<path class="st12" d="M190.7,79.9c-0.4,12-6.3,27.1-10.4,38.4"/>
		<path class="st12" d="M181.5,87.3c-0.1,8.5-2,22.4-2.4,30.9"/>
		<path class="st12" d="M169.5,80.2c-0.8,10.7,6.7,27.3,8.9,37.9"/>
		<path class="st12" d="M168.6,54.9c4.8,4.2,9.9,8.5,16.1,9.7"/>
		<path class="st12" d="M188,68.8c-0.8-0.3-1.5-1.1-1.8-1.9c-0.2-0.7-0.2-1.7-0.7-2.3"/>
		<path class="st12" d="M189.5,56.5c5.8-2.6,7.8-3.5,11.4-8.7"/>
		<path class="st12" d="M206,46.4c-0.7,0.7-1.6,0.9-2.5,0.8c-0.8-0.1-1.7-0.5-2.4-0.2"/>
		<path class="st12" d="M327,58.8c3-2.4,5.2-5.6,6.5-9.2c0.2-0.5,0.3-1,0.3-1.5c0-0.6-0.2-1.2-0.4-1.7c-1-2.9-2.2-5.7-3.6-8.3"/>
		<path class="st12" d="M306.1,57.4c-3-4-4.5-8.9-5.9-13.7c-0.2-0.6-0.3-1.2-0.3-1.8c0.1-0.7,0.3-1.2,0.7-1.8c2-3.4,5-6,8.3-8.3"/>
		<path class="st12" d="M308.6,29.6c0.7-2.5-0.8,0.9,0.7,2.1"/>
		<path class="st12" d="M329.6,37.9c0.7-0.5,1.4-1.2,1.8-2.1"/>
		<path class="st12" d="M315.1,87.3c-0.3,1.7-1.2,6.1-1.8,7.7"/>
		<path class="st12" d="M304,79.9c-0.1,4.4,3.1,20.5,6.8,26c2.4,3.7,7.7,8,10.9,11"/>
		<path class="st12" d="M313.3,95.1c4.1,8.3,6.9,13.8,8.6,21.6"/>
		<path class="st12" d="M325.5,80.3c0.6,8.9-1.8,19.8-5.9,27.8"/>
		<path class="st12" d="M316.6,113.1c-0.2,1.6-1.5,3.1-2.8,4"/>
		<path class="st12" d="M313.9,109.9c-0.1,2.3-0.8,3.8-0.7,6.1c0,0.7,0.1,0.8,0.7,1.2"/>
		<path class="st12" d="M315.1,87.3c0.4,2.6,1.2,11.5,1.6,14.1"/>
		<path class="st12" d="M235.3,62.9c-3.3,10.7-7.8,31.2-6,42.3"/>
		<path class="st12" d="M246.7,69.8c5.9,10.6,11.3,26.2,19.7,34.1"/>
		<path class="st12" d="M257.3,62.9c5.6,11.7,7.7,27.6,9.2,40.4"/>
		<path class="st12" d="M246,69.7c-1.2,4.5-3.4,8.4-5.6,12.5c-3.2,5.9-7.8,18-11.1,23.8"/>
		<path class="st12" d="M104.7,50c-5,9.7,8.7,11.4,10.1,23.1"/>
		<path class="st12" d="M115.9,38.8l0.2-1.4c0,0-0.9,0.2-2,0.2s-4.2-1.7-4.2-1.7l-1.8-5.9l7.3,1.7l3.2-2.7c0,0,0.7-0.9-0.2-4.5
			c-1.1-3.6-4.5-5.7-4.5-5.7s-1.2-4.2-1.4-4.1s-1.3,3.8-1.3,3.8c-3.6-0.1-6.3,1.7-6.8,1.6c-0.6-0.1-1.7-3.6-1.7-3.6l-1,4.3
			c0,0,0.5,9.7,0.9,13.4s-0.2,6.4-0.2,6.4l9.2,2.2l4.6-2"/>
		<path class="st12" d="M118.6,28.9c0,0,1.1,3-2.5,9.9"/>
		<path class="st12" d="M132.2,69c-5-2.5-9.7-9-10.9-14.4"/>
		<path class="st12" d="M439.4,45.3c-0.2-2.7,0-5.4,1-8c1-2.6,2.9-4.7,5.4-5.6c1.5-0.5,3.2-0.5,4.4,0.6c0.7,0.7,1,1.7,1.2,2.6
			c1,4.2,0.7,8.7-0.7,12.8c-0.2,0.6-0.4,1.2-0.8,1.6c-0.6,0.6-1.3,0.9-2.1,1.2c-2.1,0.7-4.4,0.8-6.6,0.6"/>
		<path class="st12" d="M442.9,45.8c1.7,0.4,2.8,0,4.2-0.9"/>
		<path class="st12" d="M450.4,50.7c2.4,9.8,5.9,22.2,3.4,32"/>
		<path class="st12" d="M438.2,49.3c-5.6,9.7-8.2,21-7.2,32.1"/>
		<path class="st12" d="M430.9,81.4c0.3,11,5,24.5,8.8,34.8"/>
		<path class="st12" d="M440.2,88.9c0.1,7.8,1.3,19.6,1.7,27.4"/>
		<path class="st12" d="M448.5,100.4c1.5-3.1,5.3-17.7,5.6-20"/>
		<path class="st12" d="M448.5,100.4c2.8-4.2,6.1-4.3,6.6-4.5v0.3c-1.3,4-6.3,15.5-10.7,9.8c-1.2-1.6-3.7-8.5-4-10.6"/>
		<path class="st12" d="M442.7,53c-0.7,0.8-1.5,1.7-2.4,2.4"/>
		<path class="st12" d="M437.7,50c-0.5,2.1,0.5,4.5,2.4,5.8"/>
		<path class="st12" d="M442.9,52.9c0.6,1.3,1.7,2.4,2.9,3.1"/>
		<path class="st12" d="M445.8,56c1.1-0.4,2-1.2,2.6-2.2s1-2.1,1.4-3.1"/>
		<path class="st12" d="M431.1,81.8c2.6,1.2,5.3,2.5,8.2,3c5.4,0.9,11.1-1.1,14.9-5.1"/>
		<path class="st12" d="M439.7,115.7c0.1,0.6,0.5,1.2,1,1.5c0.2,0.2,0.6,0.2,0.8,0.2c0.3-0.1,0.5-0.3,0.5-0.7"/>
		<path class="st12" d="M7.3,110.4c0,0-4.5,0-4.5,3.8"/>
		<path class="st12" d="M3.1,126.5c0,0,1.2,4.4,4.9,3.4"/>
		<path class="st12" d="M387.3,96.4c2.1,1.2,3.5,2.4,7.3,0.2"/>
		<path class="st12" d="M371.6,97.6c0,0,2.2,2.2,6.7,0.2"/>
		<path class="st12" d="M379.7,90.2c0,0-3-2-8.3-0.3"/>
		<path class="st12" d="M394.6,89.7c0,0-2.9-1.7-8.3,0"/>
		<path class="st12" d="M370.6,74.6l0.1,18l0.9,8.5c0,0,2.4,12.1,3.8,12.1c1.9,0,3.1-17.6,3.1-17.6l0.3-1.6l3.5-16.3l4,14.9l1.5,8.8
			c0,0,0.7,11.8,3.7,11.1c1.4-0.4,2.6-9.8,2.6-9.8l0.6-9.7l-1-15.1"/>
		<path class="st12" d="M47.8,92.8c1,3.5,1.1,7.1,0.9,10.6c-0.1,1.7-0.4,3.2-0.7,4.9c-0.4,3.5-0.6,6.9,0.4,10.3
			c0.4,1.4,1.2,2.6,2.4,3.6c0.7,0.6,1.3,1.2,1.9,1.9c0.2,0.2,0.2,0.4,0.3,0.7c0.1,0.4-0.1,0.7-0.6,0.7c-1.3,0-2.6,0-4-0.2
			c-0.2,0-0.7-0.2-0.8-0.6c-0.8-1.4-1.7-2.7-2.4-4.2c-0.9-1.9-1.7-3.9-2.5-5.8c-0.1-0.2-0.2-0.3-0.2-0.5c-0.7,0.1-1.2,0.2-2,0.3
			c0.5,2.5-0.5,4.6-1.6,6.8c0.8,0.1,1.6,0.2,2.3,0.4c0.8,0.2,1.7,0.5,2.4,0.9c1.1,0.6,1.4,1.6,0.9,2.6c-0.1,0.2-0.3,0.4-0.6,0.4
			c-4.6,0-9.2,0-13.9,0c-1.7,0-3-0.7-4.1-1.8c-0.4-0.4-0.8-0.7-1.2-1.2c-1.2,1.9-3.1,2.6-5.1,3c-2.3,0.5-4.6,0.7-7,0.3
			c-3.2-0.5-5.2-2.7-5.4-6c-0.1-1.2,0.1-2.6,0.2-3.8c4.4,3.3,9.1,4.6,14.4,2.9c-0.2-1.1-0.4-2.1-0.6-3.1c-0.4-3.9,0.8-7.3,3.3-10.2
			c2.9-3.4,6.5-5.7,10.6-7.5c0.2-0.1,0.6-0.2,0.5-0.6c-0.2-2.3,0.4-4.5,1.3-6.4c1-2.1,2.1-4.1,3.1-6.2c0.2-0.2,0.2-0.6,0.2-0.9
			c0.1-1.6,0.8-2.9,1.9-4c0.5-0.6,1.1-1.1,1.7-1.7c0.6,1.2,0.6,2.5,0.8,3.7c1.1-0.7,2.1-1.6,3.2-2.3c0.5,0.4,0.5,1,0.5,1.5
			c0,0.6-0.3,1.2-0.2,1.6c0.2,0.4,0.8,0.6,1.2,1c0.4,0.4,0.7,1,1.2,1.5c0.2,0.2,0.4,0.5,0.7,0.7c1.7,0.7,3.3,1.5,5,2.2
			c0.7,0.3,0.7,0.7,0.5,1.2c-0.1,0.2-0.2,0.3-0.2,0.4c-0.7,0.5-1.1,1.2-1.6,1.9c-0.5,0.7-1.3,1.1-2.1,1.2c-1.5,0.3-3,0.2-4.5,0
			c-0.1,0-0.2-0.1-0.2-0.1C48.1,93.1,48,93,47.8,92.8z"/>
		<path class="st12" d="M102.4,40.2c-2,7.5-9.5,13-12.5,20.1c-4.3,10.6-3.1,23.4-3.8,34.7"/>
		<path class="st12" d="M86,95.9c0.9-0.4,1.7-1.1,2.5-1.8c0.2-0.2,0.4-0.5,0.7-0.6c0.6-0.2,1.1,0.3,1.4,0.9c0.3,0.6,0.5,1.2,1,1.4
			c0.7,0.3,1.5-0.1,2-0.6c0.6-0.5,1-1.2,1.7-1.4c0.2-0.1,0.2-0.1,0.4-0.1c0.3,0,0.5,0.3,0.7,0.7c0.3,0.6,0.6,1.2,1.2,1.5
			s1.3,0.3,1.7-0.2"/>
		<path class="st12" d="M102.4,40.2c-3.8,7.9-7.3,18.8-1.9,35.1"/>
		<path class="st12" d="M114.1,82.1c0.4,3.6-0.4,7.3-2,10.7c-1.5,3.4-2.6,5-4.6,8"/>
		<path class="st12" d="M101.4,76.1c-1.8,6.6,1.5,14,0.5,20.9"/>
		<path class="st12" d="M123.1,75.2c-3.8,0.2-7,0.9-10.7,1.2c-3.7,0.3-8.4,0.6-11.8-1.2"/>
		<path class="st12" d="M101.8,98c-2.2,6.4-1.4,12-0.2,18.7"/>
		<path class="st12" d="M107.5,100.8c-0.7,6.7-2.2,10.2-5.9,15.8"/>
		<path class="st12" d="M114.3,82.7c6.4,8.4,9.3,13.7,9.3,13.7"/>
		<path class="st12" d="M110.4,96.6c1.2-1.1,3.3-0.8,4.2,0.4c0.2,0.3,0.6,0.7,0.9,0.7c0.2-0.1,0.3-0.3,0.5-0.6
			c0.2-0.7,0.5-1.3,1.2-1.7c1.4-0.7,3.4,1.2,4.7,0.2"/>
		<path class="st12" d="M122.8,75.5c6.6,7.4,5.9,11.3,6.8,19.9"/>
		<path class="st12" d="M129.5,95.4c0.8,4.5-3.4,13.2-3.8,17.8"/>
		<path class="st12" d="M123.8,96.8c0,6.3-1.9,11.6,2.1,16.4"/>
		<path class="st12" d="M382,55.4h-7.3v8.7h5.7"/>
		<path class="st12" d="M384.3,51.4c0.7,0,1.2-0.5,1.2-1.2c0-0.7-0.5-1.2-1.2-1.2c-0.7,0-1.2,0.5-1.2,1.2
			C383.1,50.9,383.6,51.4,384.3,51.4z"/>
		<path class="st12" d="M378.7,51.4c0.7,0,1.2-0.5,1.2-1.2c0-0.7-0.5-1.2-1.2-1.2c-0.7,0-1.2,0.5-1.2,1.2
			C377.5,50.9,378,51.4,378.7,51.4z"/>
		<path class="st12" d="M399.5,64.1c1.2-5.3-2.1-10.6-7.4-11.7c-5.2-1.1-10.4,2.3-11.6,7.6c-1.2,5.3,2.1,10.6,7.4,11.7
			C393.1,72.9,398.3,69.5,399.5,64.1z"/>
		<path class="st12" d="M396.3,64.9c0.6-2.7-1.9-5.5-5.5-6.3c-3.6-0.8-7,0.8-7.6,3.5c-0.6,2.7,1.9,5.5,5.5,6.3
			C392.3,69.1,395.7,67.6,396.3,64.9z"/>
		<path class="st12" d="M392.1,52.5l-0.8,3.4"/>
		<path class="st12" d="M389.8,52.5l-0.4,2"/>
		<path class="st12" d="M394.1,53.5l-0.4,1.9"/>
		<path class="st12" d="M374.8,43c0,0-5.8-0.2-8,4.1c-2.1,4.3-4.6,14.9-4.6,20.4s14.8,4.6,15.5,4.9c0.7,0,7.8,2,11.1,0
			c0,0-6.4-0.5-6.4-3.5c0-1.2-13-3.1-13-3.1l1.3-9.1l0.4,8.8"/>
		<path class="st12" d="M387.2,43.3c0.4,0,5.9,0.1,7.7,2.6c1.8,2.6,5.9,13.4,6.3,14c0.4,0.6,4.8,16.6-9.1,15.7c-1-0.1-0.6-4.5,3-5.4
			c3.5-0.8,2.5-1.9,2.5-1.9"/>
		<path class="st12" d="M376.6,37.8c-0.2-2.6,0-5.4,1-7.8c1-2.5,2.9-4.6,5.4-5.5c1.4-0.5,3.2-0.5,4.3,0.6c0.7,0.7,1,1.6,1.2,2.5
			c1,4.1,0.7,8.5-0.7,12.5c-0.2,0.6-0.4,1.2-0.8,1.6c-0.6,0.6-1.3,0.9-2.1,1.2c-2.1,0.6-4.3,0.8-6.4,0.6"/>
		<path class="st12" d="M382.8,38.8c0,0-3.4,1.6-3.1-1.1"/>
		<path class="st12" d="M451.8,56c0,0,2.6,14.4,10.2,21.9c0,0,3.4-3.2,5.2,0"/>
		<path class="st12" d="M435.2,54.9c0,0-5.6,15.9-13.8,22.7c0,0-3.1-3.5-5.1-0.4"/>
	</g>
</g>
</svg>
